<svg xmlns="http://www.w3.org/2000/svg" viewBox="0 0 90 90"><defs><style>.cls-1{fill:#fff;}.cls-2{fill:#c77f35;}</style></defs><g id="Layer_2" data-name="Layer 2"><g id="Layer_1-2" data-name="Layer 1"><path class="cls-1" d="M45,88.19A43.19,43.19,0,1,0,1.81,45,43.19,43.19,0,0,0,45,88.19Z"/><path class="cls-2" d="M45,90A45,45,0,1,0,0,45,45,45,0,0,0,45,90ZM69,54.79a23.79,23.79,0,0,1-7.77,17.56A22.7,22.7,0,0,1,45.85,78.1H36.38A29,29,0,0,0,47.85,59.3a28.81,28.81,0,0,0,20.5-11.36.35.35,0,0,1,.63.2ZM27.21,15.68a23.56,23.56,0,0,1,36.37,0,.19.19,0,0,1-.21.3,15.45,15.45,0,0,0-17.58,5.76.49.49,0,0,1-.79,0A15.44,15.44,0,0,0,27.43,16,.19.19,0,0,1,27.21,15.68Zm5.15,4.64A10.42,10.42,0,0,1,42.82,30.68V42.15H48V30.68A10.43,10.43,0,0,1,58.43,20.32,10.6,10.6,0,0,1,69,30.68a23.59,23.59,0,0,1-47.17,0A10.6,10.6,0,0,1,32.36,20.32ZM21.81,48.14a.35.35,0,0,1,.63-.2A28.82,28.82,0,0,0,42.62,59.27a23.88,23.88,0,0,1-15.54,18,15.82,15.82,0,0,1-5.24.86h0Z"/><path class="cls-2" d="M32.42,35.82h4.69V31.14a3.94,3.94,0,0,0-3.93-3.93H28.5v4.68A3.93,3.93,0,0,0,32.42,35.82Z"/><path class="cls-2" d="M58.37,35.82a3.93,3.93,0,0,0,3.92-3.93V27.21H57.61a3.93,3.93,0,0,0-3.92,3.93v4.68h4.68Z"/></g></g></svg>